<?xml version="1.0" encoding="utf-8"?>
<!-- Generator: Adobe Illustrator 24.1.0, SVG Export Plug-In . SVG Version: 6.00 Build 0)  -->
<svg version="1.1" id="Layer_1" xmlns="http://www.w3.org/2000/svg" xmlns:xlink="http://www.w3.org/1999/xlink" x="0px" y="0px"
	 width="128px" height="128px" viewBox="0 0 128 128" style="enable-background:new 0 0 128 128;" xml:space="preserve">
<style type="text/css">
	.st0{fill:#8CBAD2;}
	.st1{fill:#C6E4E7;}
	.st2{fill:#BBDDE1;}
	.st3{fill:#D7EEF0;}
	.st4{fill:#E6F4F4;}
	.st5{fill:#ADD1D5;}
	.st6{fill:none;stroke:#FFFFFF;stroke-width:2.0478;stroke-linecap:round;stroke-miterlimit:10;}
	.st7{fill:#C4D6E0;}
	.st8{fill:#9AC1C3;}
	.st9{fill:#DDE3E9;}
</style>
<g>
	<g>
		<path class="st0" d="M83.958,124H44.042c-10.642,0-19.3-8.658-19.3-19.3V43.266c0-3.887,1.016-7.717,2.938-11.074
			c1.272-2.221,2.625-3.65,3.713-4.797c0.356-0.376,0.666-0.703,0.936-1.015c-1.513-0.979-2.517-2.682-2.517-4.615
			c0-0.595,0.096-1.169,0.273-1.707c-0.129-0.419-0.215-0.856-0.25-1.307c-0.089-1.108,0.129-2.176,0.589-3.113
			c-0.323-0.659-0.528-1.385-0.589-2.147c-0.141-1.761,0.49-3.419,1.636-4.616c0.297-1.898,1.346-4.483,4.814-4.838
			C36.41,4.018,36.621,4,36.841,4h54.777c2.984,0,5.42,2.399,5.477,5.371c1.033,0.985,1.711,2.337,1.834,3.851
			c0.147,1.832-0.566,3.553-1.797,4.758c0.938,0.985,1.516,2.319,1.516,3.785c0,2.072-1.152,3.879-2.848,4.814
			c0.103,0.112,0.21,0.22,0.32,0.323l0,0c4.536,4.217,7.139,10.182,7.139,16.365V104.7C103.26,115.342,94.601,124,83.958,124z"/>
	</g>
	<g>
		<path class="st1" d="M93.435,29.788c-2.209-2.053-3.353-5.008-3.353-8.024l-52.218,0.051c0,3.006-1.137,5.954-3.334,8.006
			c-3.596,3.359-5.848,8.136-5.848,13.445V104.7c0,8.483,6.876,15.359,15.359,15.359h39.917c8.483,0,15.359-6.876,15.359-15.359
			V43.266C99.316,37.94,97.052,33.15,93.435,29.788z"/>
		<path class="st2" d="M28.683,49.204V104.7c0,8.483,6.876,15.359,15.359,15.359h39.918c8.483,0,15.359-6.876,15.359-15.359V49.204
			H28.683z"/>
		<path class="st1" d="M93.435,29.788c-2.209-2.053-3.353-5.008-3.353-8.024l-2.714,0.003c0.001,3.015,1.145,5.969,3.353,8.021
			c3.616,3.362,5.881,8.151,5.882,13.478V104.7c0,8.483-6.876,15.359-15.359,15.359h2.714c8.483,0,15.359-6.876,15.359-15.359
			V43.266C99.316,37.94,97.052,33.15,93.435,29.788z"/>
		<path class="st3" d="M73.847,104.7V43.266c0-5.326-2.266-10.117-5.881-13.478c-2.203-2.047-3.346-4.993-3.352-8l-26.75,0.025
			c0,3.006-1.137,5.954-3.334,8.006c-3.596,3.359-5.848,8.136-5.848,13.445V104.7c0,8.483,6.876,15.359,15.359,15.359h14.447
			C66.971,120.058,73.847,113.182,73.847,104.7z"/>
		<path class="st4" d="M35.664,99.112V48.581c0-3.827-3.084-6.932-6.903-6.969c-0.049,0.545-0.079,1.095-0.079,1.652V104.7
			c0,0.466,0.024,0.926,0.065,1.382C32.572,106.053,35.664,102.944,35.664,99.112z"/>
		<path class="st1" d="M28.683,49.204V104.7c0,8.483,6.876,15.359,15.359,15.359h14.447c8.483,0,15.359-6.876,15.359-15.359V49.204
			H28.683z"/>
		<g>
			<path class="st5" d="M55.962,83.344h-3.649c-0.565,0-1.024-0.458-1.024-1.024c0-0.565,0.458-1.024,1.024-1.024h3.649
				c0.54,0,0.635-0.095,0.635-0.635v-9.474c0-0.565,0.458-1.024,1.024-1.024s1.024,0.458,1.024,1.024v9.474
				C58.645,82.341,57.642,83.344,55.962,83.344z"/>
		</g>
		<g>
			<path class="st5" d="M65.179,83.344h-1.475c-1.33,0-2.357-0.677-2.893-1.905l-4.134-9.856c-0.219-0.521,0.027-1.122,0.548-1.34
				c0.52-0.218,1.121,0.026,1.34,0.548l4.128,9.843c0.203,0.466,0.497,0.662,1.01,0.662h1.475c0.512,0,0.805-0.195,1.013-0.674
				l4.162-9.87c0.189-0.449,0.668-0.703,1.146-0.606c0.477,0.097,0.821,0.516,0.821,1.004v9.511c0,0.565-0.458,1.024-1.024,1.024
				c-0.565,0-1.024-0.458-1.024-1.024v-4.448l-2.199,5.215C67.537,82.667,66.51,83.344,65.179,83.344z"/>
		</g>
		<g>
			<path class="st5" d="M76.606,83.344h-3.649c-1.68,0-2.683-1.003-2.683-2.683c0-0.565,0.458-1.024,1.024-1.024
				c0.565,0,1.024,0.458,1.024,1.024c0,0.54,0.095,0.635,0.635,0.635h3.649c0.54,0,0.635-0.095,0.635-0.635V56.7
				c0-0.565,0.458-1.024,1.024-1.024c0.565,0,1.024,0.458,1.024,1.024v23.962C79.289,82.341,78.286,83.344,76.606,83.344z"/>
		</g>
		<path class="st2" d="M92.225,28.433c-1.414-1.9-2.142-4.264-2.142-6.667l-52.218,0.051c0,2.382-0.716,4.726-2.106,6.618h56.466
			V28.433z"/>
		<path class="st5" d="M90.664,25.403c-0.383-1.164-0.581-2.396-0.581-3.638l-52.218,0.051c0,1.224-0.192,2.439-0.564,3.588h53.364
			V25.403z"/>
		<g>
			<path class="st4" d="M50.654,56.7c0-1.106,0.552-1.659,1.659-1.659h3.097c0.921,0,1.548,0.407,1.954,1.254l7.077,15.298
				l7.115-15.298c0.405-0.847,1.032-1.254,1.953-1.254h3.097c1.106,0,1.659,0.553,1.659,1.659v23.962
				c0,1.106-0.553,1.659-1.659,1.659h-3.649c-1.107,0-1.659-0.553-1.659-1.659v-9.511l-4.166,9.88
				c-0.368,0.847-1.032,1.29-1.953,1.29h-1.474c-0.922,0-1.585-0.443-1.954-1.29l-4.129-9.843v9.474
				c0,1.106-0.552,1.659-1.659,1.659h-3.649c-1.106,0-1.659-0.553-1.659-1.659V56.7H50.654z"/>
		</g>
		<path class="st5" d="M87.138,118.762c-5.45-2.314-13.785-3.797-23.146-3.797s-17.695,1.483-23.146,3.797
			c-0.312,0.133-0.436,0.487-0.424,0.849c1.162,0.281,2.37,0.447,3.619,0.447h39.917c1.243,0,2.446-0.164,3.604-0.443
			C87.576,119.252,87.452,118.895,87.138,118.762z"/>
		<g>
			<path class="st5" d="M91.223,55.792c-1.131,0-2.048-0.917-2.048-2.048v-4.54c0-1.131,0.917-2.048,2.048-2.048
				s2.048,0.917,2.048,2.048v4.54C93.271,54.875,92.354,55.792,91.223,55.792z"/>
		</g>
		<path class="st6" d="M50.654,80.662V56.7c0-1.106,0.552-1.659,1.659-1.659h3.097c0.921,0,1.548,0.407,1.954,1.254"/>
		<path class="st6" d="M66.743,67.281l4.812-10.985c0.405-0.847,1.032-1.254,1.953-1.254h3.097"/>
		<g>
			<g>
				<path class="st7" d="M93.156,20.214v-4.478c1.11-0.108,1.932-1.083,1.843-2.199c-0.081-1.003-0.874-1.776-1.843-1.87v-2.19
					c0-0.848-0.688-1.536-1.536-1.536H36.841c-0.848,0-1.536,0.688-1.536,1.536v1.553c-0.952,0.24-1.622,1.132-1.541,2.143
					c0.071,0.897,0.714,1.606,1.541,1.815v1.304c-0.952,0.24-1.622,1.132-1.541,2.143c0.069,0.869,0.678,1.551,1.467,1.784
					c-0.822,0.039-1.477,0.712-1.477,1.544c0,0.857,0.694,1.551,1.551,1.551h57.85c0.857,0,1.551-0.694,1.551-1.551
					C94.706,20.909,94.012,20.215,93.156,20.214z"/>
			</g>
		</g>
	</g>
	<g>
		<path class="st5" d="M91.223,100.604c-1.131,0-2.048-0.917-2.048-2.048V63.47c0-1.131,0.917-2.048,2.048-2.048
			s2.048,0.917,2.048,2.048v35.086C93.271,99.688,92.354,100.604,91.223,100.604z"/>
	</g>
	<g>
		<path class="st8" d="M46.04,93.449c0-1.325,0-1.851-0.015-2.189h1.129c0.028,0.199,0.041,0.58,0.041,0.897
			c0.297-0.621,0.818-1.018,1.626-1.018c0.771,0,1.284,0.334,1.505,1.067c0.268-0.572,0.816-1.067,1.772-1.067
			c0.933,0,1.781,0.458,1.781,2.133v5.285h-1.163v-5.092c0-0.708-0.21-1.297-0.982-1.297c-0.88,0-1.182,0.763-1.182,1.729v4.66
			h-1.169v-5.063c0-0.858-0.285-1.32-0.966-1.32c-0.833,0-1.212,0.729-1.212,1.814v4.569h-1.169v-5.108H46.04z"/>
		<path class="st8" d="M61.229,97.21c0,0.438,0.036,1.098,0.057,1.347h-1.074c-0.036-0.159-0.072-0.536-0.072-0.8
			c-0.271,0.569-0.807,0.93-1.71,0.93c-1.402,0-1.914-1.099-1.914-2.12c0-1.366,0.927-2.348,2.828-2.348
			c0.323,0,0.525,0,0.729,0.022v-0.938c0-0.542-0.097-1.22-1.036-1.22c-0.999,0-1.069,0.706-1.112,1.194h-1.129
			c0.029-1.049,0.529-2.137,2.281-2.137c1.447,0,2.149,0.692,2.149,2.047v4.023H61.229z M60.101,95.15
			c-0.18-0.029-0.37-0.036-0.688-0.036c-1.232,0-1.727,0.587-1.727,1.358c0,0.629,0.326,1.224,1.078,1.224
			c1.027,0,1.337-0.732,1.337-2.182V95.15z"/>
		<path class="st8" d="M64.908,96.434c0.039,0.726,0.419,1.308,1.224,1.308c0.751,0,1.112-0.445,1.112-1.078
			c0-0.708-0.358-1.042-1.295-1.404c-1.549-0.59-1.987-1.142-1.987-2.169c0-0.978,0.606-1.96,2.144-1.96
			c1.684,0,2.15,1.148,2.158,2.115h-1.144c-0.016-0.33-0.085-1.171-1.049-1.171c-0.644,0-0.944,0.399-0.944,0.943
			c0,0.562,0.257,0.832,1.241,1.211c1.434,0.549,2.053,1.079,2.053,2.315c0,1.351-0.846,2.141-2.346,2.141
			c-1.553,0-2.301-0.933-2.332-2.252C63.745,96.434,64.908,96.434,64.908,96.434z"/>
		<path class="st8" d="M75.875,94.827c0,2.582-0.885,3.865-2.561,3.865c-1.704,0-2.55-1.233-2.55-3.837
			c0-2.542,1.007-3.716,2.603-3.716C74.994,91.138,75.875,92.38,75.875,94.827z M71.963,94.856c0,1.904,0.449,2.828,1.371,2.828
			c0.911,0,1.345-0.933,1.345-2.83c0-1.818-0.425-2.7-1.352-2.7C72.44,92.153,71.963,92.96,71.963,94.856z"/>
		<path class="st8" d="M78.63,93.519c0-1.495-0.008-1.913-0.015-2.26h1.135c0.021,0.178,0.042,0.471,0.042,0.919
			c0.239-0.536,0.729-1.046,1.706-1.046c1.082,0,1.875,0.631,1.875,2.224v5.201h-1.183v-4.959c0-0.859-0.263-1.431-1.063-1.431
			c-0.917,0-1.313,0.591-1.313,2.012v4.377h-1.183v-5.039H78.63z"/>
	</g>
</g>
<g>
	<path class="st9" d="M92.795,11.66l-25.464,2.037v-2.636c0,0.171-0.138,0.311-0.311,0.311c-0.171,0-0.311-0.138-0.311-0.311V9.227
		c0-0.171,0.138-0.311,0.311-0.311c0.171,0,0.311,0.138,0.311,0.311V8.626h-2.104v0.29c0.172,0,0.311,0.138,0.311,0.311v1.835
		c0,0.171-0.138,0.311-0.311,0.311v2.493l-3.413,0.273v-3.077c0,0.171-0.14,0.311-0.311,0.311c-0.171,0-0.311-0.138-0.311-0.311
		V9.227c0-0.171,0.138-0.311,0.311-0.311s0.311,0.138,0.311,0.311V7.943H36.84V7.942c-0.848,0-1.535,0.688-1.535,1.536v1.553
		c-0.952,0.24-1.621,1.132-1.541,2.142l15.019-1.201c0.09,1.127-0.751,2.115-1.88,2.205l-10.935,0.875
		c-0.055,0.004-0.11,0.006-0.165,0.006c-0.175,0-0.344-0.03-0.507-0.072c0.003,0.001,0.006,0.003,0.009,0.004v1.304
		c-0.952,0.24-1.622,1.132-1.541,2.143L95,13.539c0,0,0-0.001,0-0.001C94.909,12.411,93.922,11.57,92.795,11.66z M37.611,11.062
		c0,0.171-0.138,0.311-0.311,0.311c-0.171,0-0.311-0.138-0.311-0.311V9.227c0-0.171,0.138-0.311,0.311-0.311
		c0.171,0,0.311,0.138,0.311,0.311V11.062z M39.472,11.062c0,0.171-0.138,0.311-0.311,0.311c-0.171,0-0.311-0.138-0.311-0.311V9.227
		c0-0.171,0.138-0.311,0.311-0.311c0.171,0,0.311,0.138,0.311,0.311V11.062z M41.335,11.062c-0.001,0.171-0.14,0.311-0.311,0.311
		c-0.171,0-0.311-0.138-0.311-0.311V9.227c0-0.171,0.138-0.311,0.311-0.311c0.171,0,0.311,0.138,0.311,0.311V11.062z M43.197,11.062
		c-0.001,0.171-0.14,0.311-0.311,0.311c-0.171,0-0.311-0.138-0.311-0.311V9.227c0-0.171,0.138-0.311,0.311-0.311
		c0.171,0,0.311,0.138,0.311,0.311V11.062z M45.058,11.062c-0.001,0.171-0.14,0.311-0.311,0.311s-0.311-0.138-0.311-0.311V9.227
		c0-0.171,0.138-0.311,0.311-0.311c0.171,0,0.311,0.138,0.311,0.311V11.062z M46.92,11.062c0,0.171-0.14,0.311-0.311,0.311
		c-0.171,0-0.311-0.138-0.311-0.311V9.227c0-0.171,0.138-0.311,0.311-0.311c0.171,0,0.311,0.138,0.311,0.311V11.062z M48.781,11.062
		c0,0.171-0.14,0.311-0.311,0.311c-0.171,0-0.311-0.138-0.311-0.311V9.227c0-0.171,0.138-0.311,0.311-0.311
		c0.171,0,0.311,0.138,0.311,0.311V11.062z M50.643,11.062c0,0.171-0.138,0.311-0.311,0.311c-0.171,0-0.311-0.138-0.311-0.311V9.227
		c0-0.171,0.138-0.311,0.311-0.311c0.171,0,0.311,0.138,0.311,0.311V11.062z M52.505,11.062c0,0.171-0.138,0.311-0.311,0.311
		c-0.171,0-0.311-0.138-0.311-0.311V9.227c0-0.171,0.138-0.311,0.311-0.311c0.171,0,0.311,0.138,0.311,0.311V11.062z M54.366,11.062
		c0,0.171-0.138,0.311-0.311,0.311c-0.171,0-0.311-0.138-0.311-0.311V9.227c0-0.171,0.138-0.311,0.311-0.311
		c0.172,0,0.311,0.138,0.311,0.311V11.062z M56.229,11.062c-0.001,0.171-0.14,0.311-0.311,0.311s-0.311-0.138-0.311-0.311V9.227
		c0-0.171,0.138-0.311,0.311-0.311c0.171,0,0.311,0.138,0.311,0.311V11.062z M58.091,11.062c-0.001,0.171-0.14,0.311-0.311,0.311
		c-0.171,0-0.311-0.138-0.311-0.311V9.227c0-0.171,0.138-0.311,0.311-0.311c0.172,0,0.311,0.138,0.311,0.311V11.062z M59.952,11.062
		c0,0.171-0.14,0.311-0.311,0.311c-0.171,0-0.311-0.138-0.311-0.311V9.227c0-0.171,0.138-0.311,0.311-0.311
		c0.171,0,0.311,0.138,0.311,0.311V11.062z"/>
	<path class="st9" d="M63.365,11.372c0.171,0,0.311-0.14,0.311-0.311V9.227c0-0.172-0.14-0.311-0.311-0.311
		c-0.172,0-0.311,0.14-0.311,0.311v1.835C63.054,11.234,63.194,11.372,63.365,11.372z"/>
	<path class="st9" d="M68.882,11.372c0.172,0,0.311-0.14,0.311-0.311V9.227c0-0.172-0.14-0.311-0.311-0.311
		c-0.172,0-0.311,0.14-0.311,0.311v1.835C68.571,11.234,68.71,11.372,68.882,11.372z"/>
	<path class="st9" d="M70.744,11.372c0.171,0,0.309-0.14,0.311-0.311V9.227c0-0.172-0.138-0.311-0.311-0.311
		c-0.172,0-0.311,0.14-0.311,0.311v1.835C70.434,11.234,70.573,11.372,70.744,11.372z"/>
	<path class="st9" d="M72.606,11.372c0.171,0,0.309-0.14,0.311-0.311V9.227c0-0.172-0.138-0.311-0.311-0.311
		c-0.172,0-0.311,0.14-0.311,0.311v1.835C72.295,11.234,72.435,11.372,72.606,11.372z"/>
	<path class="st9" d="M74.468,11.372c0.171,0,0.309-0.14,0.311-0.311V9.227c0-0.172-0.14-0.311-0.311-0.311
		c-0.172,0-0.311,0.14-0.311,0.311v1.835C74.157,11.234,74.296,11.372,74.468,11.372z"/>
	<path class="st9" d="M76.329,11.372c0.171,0,0.311-0.14,0.311-0.311V9.227c0-0.172-0.14-0.311-0.311-0.311
		c-0.172,0-0.311,0.14-0.311,0.311v1.835C76.018,11.234,76.158,11.372,76.329,11.372z"/>
	<path class="st9" d="M78.191,11.372c0.171,0,0.311-0.14,0.311-0.311V9.227c0-0.172-0.138-0.311-0.311-0.311
		c-0.172,0-0.311,0.14-0.311,0.311v1.835C77.88,11.234,78.02,11.372,78.191,11.372z"/>
	<path class="st9" d="M80.052,11.372c0.172,0,0.311-0.14,0.311-0.311V9.227c0-0.172-0.138-0.311-0.311-0.311
		s-0.311,0.14-0.311,0.311v1.835C79.742,11.234,79.881,11.372,80.052,11.372z"/>
	<path class="st9" d="M81.914,11.372c0.172,0,0.311-0.14,0.311-0.311V9.227c0-0.172-0.14-0.311-0.311-0.311
		c-0.172,0-0.311,0.14-0.311,0.311v1.835C81.603,11.234,81.743,11.372,81.914,11.372z"/>
	<path class="st9" d="M83.776,11.372c0.172,0,0.311-0.14,0.311-0.311V9.227c0-0.172-0.14-0.311-0.311-0.311
		c-0.172,0-0.311,0.14-0.311,0.311v1.835C83.465,11.234,83.604,11.372,83.776,11.372z"/>
	<path class="st9" d="M85.638,11.372c0.171,0,0.309-0.14,0.311-0.311V9.227c0-0.172-0.138-0.311-0.311-0.311
		s-0.311,0.14-0.311,0.311v1.835C85.328,11.234,85.467,11.372,85.638,11.372z"/>
	<path class="st9" d="M87.5,11.372c0.171,0,0.309-0.14,0.311-0.311V9.227c0-0.172-0.138-0.311-0.311-0.311
		c-0.172,0-0.311,0.14-0.311,0.311v1.835C87.189,11.234,87.329,11.372,87.5,11.372z"/>
	<path class="st9" d="M89.362,11.372c0.171,0,0.311-0.14,0.311-0.311V9.227c0-0.172-0.14-0.311-0.311-0.311
		c-0.172,0-0.311,0.14-0.311,0.311v1.835C89.051,11.234,89.19,11.372,89.362,11.372z"/>
	<path class="st9" d="M91.223,11.372c0.171,0,0.311-0.14,0.311-0.311V9.227c0-0.172-0.14-0.311-0.311-0.311
		c-0.172,0-0.311,0.14-0.311,0.311v1.835C90.912,11.234,91.052,11.372,91.223,11.372z"/>
	<path class="st9" d="M93.155,20.214H67.331v-2.407l-2.104,0.168v2.239h-3.413v-1.966l-25.846,2.068
		c-0.055,0.004-0.11,0.006-0.165,0.006c-0.208,0-0.406-0.04-0.596-0.098c0,0,0,0,0,0c-0.81,0.052-1.452,0.718-1.452,1.541h60.952
		C94.706,20.908,94.012,20.214,93.155,20.214z"/>
</g>
<path class="st3" d="M28.683,49.204V104.7c0,0.466,0.024,0.926,0.065,1.382c3.825-0.029,6.917-3.138,6.917-6.969V49.204H28.683z"/>
</svg>
