<?xml version="1.0" encoding="utf-8"?>
<!-- Generator: Adobe Illustrator 27.5.0, SVG Export Plug-In . SVG Version: 6.00 Build 0)  -->
<svg version="1.1" id="Layer_1" xmlns="http://www.w3.org/2000/svg" xmlns:xlink="http://www.w3.org/1999/xlink" x="0px" y="0px"
	 viewBox="0 0 128 128" style="enable-background:new 0 0 128 128;" xml:space="preserve">
<style type="text/css">
	.st0{fill:#010101;}
</style>
<g>
	<rect x="2.38" y="115.35" class="st0" width="7.6" height="6.3"/>
	<rect x="32.88" y="115.35" class="st0" width="7.6" height="6.3"/>
	<rect x="48.08" y="115.35" class="st0" width="7.6" height="6.3"/>
	<rect x="17.68" y="115.35" class="st0" width="7.6" height="6.3"/>
	<path class="st0" d="M84.08,98.85c0.5-0.6,0.7-1.3,0.7-2v-34.9h1.2c1.1,0,2.3-0.7,2.9-1.9c0.1-0.2,2.3-4.9,9.1-6v4.7
		c0,1.7,1.4,3.2,3.2,3.2h22.2c1.7,0,3.2-1.4,3.2-3.2v-37.4c0-1.7-1.4-3.2-3.2-3.2h-22.2c-1.7,0-3.2,1.4-3.2,3.2v4.7
		c-6.7-1.1-9-5.7-9.1-6c-0.5-1.2-1.6-1.8-2.8-1.9h-0.1l0,0l0,0c-13.9,0-33.8,0-47.8,0c-21.1,0-35.8,16.7-35.8,40.5
		c0,1.7,1.4,3.2,3.2,3.2c1.7,0,3.2-1.4,3.2-3.2c0-8.2,6.7-14.9,14.9-14.9s14.9,6.7,14.9,14.9c0,1.7,1.4,3.2,3.2,3.2h1.2v34.9
		c0,0.7,0.3,1.4,0.7,2l17.8,21.7c0.6,0.7,1.5,1.2,2.4,1.2c25,0,37.7,0,62.7,0v-6.3h-56L84.08,98.85z M66.98,91.45v-23.7
		c0-3.2,2.6-5.7,5.7-5.7s5.7,2.6,5.7,5.7v21.9C74.58,88.75,70.58,89.35,66.98,91.45z M49.18,67.75c0-3.2,2.6-5.7,5.7-5.7
		c3.2,0,5.7,2.6,5.7,5.7v23.7c-3.6-2.1-7.6-2.7-11.5-1.8v-21.9H49.18z M57.68,96.95c1.9,1.2,4,1.8,6.2,1.8c2.1,0,4.3-0.6,6.2-1.8
		c3-1.9,5.9-1.7,8.1-0.9l-9.1,11.1h-10.3l-9.1-11.1C51.78,95.35,54.68,95.15,57.68,96.95z M104.38,24.55h15.8v31h-15.8V24.55z
		 M23.58,37.45c-4.1,0-7.9,1.2-11.2,3.2c5.3-11,15.6-16.1,25.8-16.1c15,0,29.8,0,44.7,0v9.4c0,1.7,1.4,3.2,3.2,3.2
		c1.7,0,3.2-1.4,3.2-3.2v-4.6c2.2,1.4,5.1,2.7,8.8,3.1v15.1c-7.9,1-12,5.4-13.8,8h-39.4v-17.9c0-1.7-1.4-3.2-3.2-3.2
		c-1.7,0-3.2,1.4-3.2,3.2v5.9C34.68,39.85,29.38,37.45,23.58,37.45z"/>
	<rect x="44.58" y="5.95" class="st0" width="38.5" height="6.3"/>
</g>
</svg>
