<?xml version="1.0" encoding="utf-8"?>
<!-- Generator: Adobe Illustrator 27.5.0, SVG Export Plug-In . SVG Version: 6.00 Build 0)  -->
<svg version="1.1" id="Layer_1" xmlns="http://www.w3.org/2000/svg" xmlns:xlink="http://www.w3.org/1999/xlink" x="0px" y="0px"
	 viewBox="0 0 128 128" style="enable-background:new 0 0 128 128;" xml:space="preserve">
<g>
	<path d="M49.2,106.4h-2.5c0.3-0.2,0.7-0.5,1-0.8c0.3-0.3,0.6-0.5,0.9-0.8c0.4-0.4,0.9-0.9,1-1.5c0.1-0.5,0-1-0.1-1.6
		c-0.2-0.5-0.6-1-1.1-1.3s-1.1-0.5-1.8-0.5c-0.9,0-1.7,0.3-2.3,0.9c-0.1,0.1-0.3,0.3-0.4,0.4c-0.3,0.4-0.8,0.8-0.2,1.2l0.9,0.6
		c0.2,0.2,0.5,0.1,0.7-0.1c0.1-0.2,0.3-0.4,0.6-0.6c0.2-0.2,0.5-0.3,0.8-0.3c0.5,0,0.9,0.2,1,0.5c0,0.1,0,0.3,0,0.5
		s-0.1,0.3-0.2,0.4c-0.1,0.1-0.4,0.4-0.7,0.6c-0.6,0.5-1.3,1.1-1.9,1.7l-0.8,0.7c-0.1,0.1-0.2,0.2-0.3,0.3c-0.1,0.1-0.1,0.3-0.1,0.6
		v0.5c0,0.3,0.1,0.5,0.5,0.5h5.3c0.3,0,0.5-0.1,0.5-0.5v-1C49.7,106.6,49.6,106.4,49.2,106.4z"/>
	<path d="M58.6,100c-1.2,0-2.1,0.6-2.8,1.4c-0.6,0.8-1,1.8-1,3c0,1.2,0.3,2.3,1,3.1c0.6,0.8,1.6,1.3,2.7,1.3c1.3,0,2.2-0.5,2.8-1.3
		c0.6-0.8,0.9-1.9,0.9-3c0-1.2-0.4-2.2-1-3C60.6,100.5,59.7,100,58.6,100z M59.9,105.9c-0.2,0.4-0.6,0.8-1.3,0.8
		c-0.7,0-1.1-0.3-1.3-0.8s-0.3-1-0.3-1.6c0-0.5,0.1-1.1,0.4-1.6c0.2-0.5,0.7-0.8,1.2-0.8c0.6,0,1,0.4,1.3,0.8
		c0.2,0.5,0.4,1.1,0.4,1.5C60.2,104.8,60.1,105.4,59.9,105.9z"/>
	<path d="M70.1,100.2h-1c-0.2,0-0.4,0.1-0.6,0.3l-1.3,1.6c-0.2,0.3-0.1,0.6,0.3,0.6h0.9v5.2c0,0.3,0.1,0.5,0.5,0.5H70
		c0.3,0,0.5-0.1,0.5-0.5v-7.2C70.6,100.4,70.4,100.2,70.1,100.2z"/>
	<path d="M81.2,104.1c0.3-0.1,0.5-0.4,0.6-0.7c0.1-0.3,0.2-0.6,0.2-0.9c0-0.7-0.3-1.3-0.8-1.8c-0.5-0.4-1.2-0.7-2-0.7
		s-1.6,0.2-2,0.7c-0.5,0.4-0.8,1-0.8,1.8c0,0.3,0,0.6,0.1,0.9c0.1,0.3,0.3,0.6,0.7,0.8c-0.4,0.2-0.7,0.5-0.9,0.8
		c-0.2,0.3-0.2,0.8-0.2,1.1c0,0.8,0.3,1.4,0.9,1.9c0.5,0.5,1.4,0.7,2.3,0.7s1.8-0.3,2.3-0.7c0.5-0.5,0.8-1.1,0.8-1.9
		c0-0.3-0.1-0.7-0.3-1.1C81.8,104.6,81.6,104.3,81.2,104.1z M79.2,101.6c0.7,0,1.1,0.4,1.1,0.8c0,0.2-0.1,0.4-0.3,0.6
		c-0.2,0.1-0.4,0.2-0.8,0.2c-0.3,0-0.6-0.1-0.8-0.2c-0.2-0.1-0.3-0.4-0.3-0.6C78.1,102,78.4,101.6,79.2,101.6z M79.9,106.5
		c-0.2,0.2-0.5,0.3-0.8,0.3c-0.6,0-1.1-0.4-1.1-0.9c0-0.5,0.3-0.9,1.1-0.9s1.1,0.4,1.1,0.9C80.3,106.2,80.2,106.3,79.9,106.5z"/>
	<path d="M64,3.2C30.5,3.2,3.2,30.5,3.2,64s27.3,60.8,60.8,60.8s60.8-27.3,60.8-60.8S97.5,3.2,64,3.2z M64,121.7
		C32.2,121.7,6.3,95.8,6.3,64S32.2,6.3,64,6.3s57.7,25.9,57.7,57.7S95.8,121.7,64,121.7z"/>
	<rect x="25.3" y="87.8" width="3.7" height="3.1"/>
	<rect x="32.7" y="87.8" width="3.7" height="3.1"/>
	<rect x="47.5" y="87.8" width="3.7" height="3.1"/>
	<rect x="54.9" y="87.8" width="3.7" height="3.1"/>
	<rect x="40.1" y="87.8" width="3.7" height="3.1"/>
	<path d="M18.3,55.3c-0.7-0.2-1.4-0.1-1.9,0.2c-0.6,0.3-1.1,1.2-1.7,2.9c-0.1,0.3-0.2,0.6-0.4,0.8c-0.1,0.2-0.3,0.2-0.5,0.1
		c-0.1,0-0.2-0.1-0.3-0.3c-0.1-0.2-0.1-0.5-0.1-0.9c0-0.6,0.4-1.2,0.6-1.5c0.2-0.3,0.2-0.5,0-0.7l-0.8-0.7c-0.2-0.2-0.5-0.2-0.7,0
		c-0.2,0.2-0.4,0.6-0.6,1c-0.2,0.4-0.3,1-0.4,1.7c-0.1,0.8,0,1.5,0.3,2.1c0.2,0.6,0.7,1.1,1.3,1.4c0.2,0.1,0.6,0.2,0.9,0.2
		s0.7,0,1.1-0.2c0.7-0.3,1.3-1.4,1.7-2.5c0.1-0.3,0.2-0.5,0.2-0.7c0.1-0.4,0.3-0.6,0.4-0.7c0,0,0.1-0.1,0.1-0.1c0.1,0,0.2-0.1,0.3,0
		c0.1,0,0.2,0.1,0.3,0.2c0.1,0.2,0.1,0.8,0,1.4c-0.1,0.6-0.3,1-0.8,1.6c-0.2,0.2-0.2,0.5,0,0.7l0.8,0.8c0.2,0.2,0.5,0.2,0.7,0
		c0.8-1,1.1-2,1.2-2.8c0-0.1,0-0.1,0-0.2v-0.2c0.1-1.1,0-1.9-0.4-2.4C19.4,55.8,18.9,55.5,18.3,55.3z"/>
	<path d="M22.9,45.5l-4.4,1.6l-2.1-3.9c-0.2-0.4-0.5-0.3-0.7,0l-0.4,1.1c-0.1,0.2-0.1,0.4,0,0.7l1.4,2.6l-1.9-0.7
		c-0.3-0.1-0.5,0-0.6,0.3l-0.4,1c-0.1,0.3,0,0.5,0.3,0.6l6.8,2.6c0.3,0.1,0.5,0,0.6-0.3l0.4-1c0.1-0.3,0-0.5-0.3-0.6l-1.9-0.7l2.8-1
		c0.2-0.1,0.4-0.2,0.5-0.5l0.5-1.3C23.5,45.5,23.3,45.3,22.9,45.5z"/>
	<path d="M25.7,41.3l2.7-3.9c0.2-0.3,0.1-0.5-0.1-0.7l-0.9-0.6c-0.3-0.2-0.5-0.1-0.7,0.1l-1.8,2.6L24,38.2l1.3-1.9
		c0.2-0.3,0.1-0.5-0.1-0.7l-0.8-0.5c-0.3-0.2-0.5-0.1-0.7,0.1l-1.3,1.9l-0.9-0.6l1.8-2.6c0.2-0.3,0.1-0.5-0.1-0.7l-0.9-0.6
		c-0.3-0.2-0.5-0.1-0.7,0.1l-2.7,3.9c-0.2,0.3-0.1,0.5,0.1,0.7l6,4.1C25.3,41.6,25.5,41.6,25.7,41.3z"/>
	<path d="M33.2,32l0.8-0.7c0.2-0.2,0.2-0.5,0-0.7l-3.8-4.1l1.3-1.2c0.2-0.2,0.2-0.5,0-0.7l-0.7-0.8c-0.2-0.2-0.5-0.2-0.7,0l-4,3.7
		c-0.2,0.2-0.2,0.5,0,0.7l0.7,0.8c0.2,0.2,0.5,0.2,0.7,0l1.3-1.2l3.8,4.1C32.7,32.2,32.9,32.2,33.2,32z"/>
	<path d="M39.3,25.7c1.1,0.3,2.2,0.2,3.3-0.4c1-0.5,1.7-1.4,2-2.5c0.1-0.3,0-0.5-0.4-0.6L43.1,22c-0.3,0-0.5,0.1-0.6,0.4
		c-0.2,0.4-0.5,0.8-1,1.1c-0.5,0.3-1.1,0.3-1.7,0.2c-0.5-0.1-1-0.5-1.4-1.1c-0.3-0.5-0.3-1.1-0.2-1.7c0.1-0.5,0.5-1,1.1-1.4
		c0.5-0.2,1-0.3,1.5-0.2c0.3,0,0.5,0,0.6-0.3l0.4-1c0.1-0.3,0-0.5-0.3-0.6c-1.1-0.3-2.2-0.1-3.3,0.4c-1,0.6-1.8,1.5-2,2.6
		c-0.3,1.1-0.2,2.2,0.4,3.3C37.3,24.7,38.2,25.4,39.3,25.7z"/>
	<path d="M48.8,21.6c0.1,0.3,0.3,0.4,0.6,0.3l1.1-0.3c0.3-0.1,0.4-0.3,0.3-0.6l-0.7-2.5l2.2-0.6l0.7,2.5c0.1,0.3,0.3,0.4,0.6,0.3
		l1.1-0.3c0.3-0.1,0.4-0.3,0.3-0.6l-1.8-7c-0.1-0.3-0.3-0.4-0.6-0.3l-1.1,0.3c-0.3,0.1-0.4,0.3-0.3,0.6l0.7,2.5l-2.2,0.6L49,14
		c-0.1-0.3-0.3-0.4-0.6-0.3L47.3,14c-0.3,0.1-0.4,0.3-0.3,0.6L48.8,21.6z"/>
	<path d="M67.2,19.2c0.5,0.4,1.3,0.7,1.8,0.7c0.6,0.1,1.1,0,1.5-0.1c0.4-0.1,0.7-0.3,1-0.5l0.4,0.6c0.1,0.2,0.3,0.3,0.6,0.3l1.1,0.1
		c0.4,0,0.6-0.2,0.3-0.6L73,18.4c0.3-0.2,0.5-0.3,0.7-0.5c0.2-0.2,0.3-0.4,0.1-0.7l-0.3-0.5c-0.2-0.2-0.4-0.3-0.7-0.1
		c-0.1,0-0.2,0.1-0.2,0.1c-0.1,0.1-0.3,0.2-0.4,0.2l-0.8-1.2c0.3-0.1,0.6-0.3,0.8-0.4c0.4-0.3,0.9-0.7,1-1.4c0.1-0.5,0-1.1-0.4-1.6
		c-0.3-0.5-0.9-0.8-1.8-0.9c-1.7-0.2-2.7,0.5-2.9,1.8c0,0.3,0,0.6,0.2,1c0.1,0.3,0.3,0.6,0.5,1c-0.5,0.2-1.1,0.4-1.5,0.8
		c-0.4,0.3-0.8,0.7-0.9,1.3C66.2,18.2,66.6,18.8,67.2,19.2z M70.7,12.9c0.3,0,0.5,0.1,0.6,0.3c0.1,0.2,0.1,0.4,0.1,0.6
		c0,0.2-0.1,0.4-0.3,0.5c-0.2,0.1-0.4,0.2-0.6,0.3l-0.1-0.2c0-0.1-0.1-0.2-0.2-0.3c-0.1-0.2-0.2-0.4-0.2-0.6
		C69.9,13.1,70.1,12.9,70.7,12.9z M68.3,17.5c0-0.1,0.1-0.3,0.2-0.4c0.2-0.2,0.6-0.4,1-0.5l1,1.4c-0.1,0.1-0.2,0.1-0.4,0.2
		c-0.2,0.1-0.5,0.2-0.9,0.1c-0.2,0-0.5-0.1-0.7-0.2C68.4,18,68.3,17.8,68.3,17.5z"/>
	<path d="M84.5,24.5l3.1,1.9c0.5,0.3,1.1,0.4,1.5,0.4c0.4,0,0.9-0.2,1.2-0.5c0.3-0.2,0.6-0.6,0.7-0.8c0.2-0.5,0.3-1,0.2-1.4
		c0-0.4-0.2-0.7-0.3-0.8c0.2,0,0.4,0,0.7-0.1c0.2-0.1,0.5-0.3,0.7-0.6l0,0c0.2-0.4,0.3-0.8,0.4-1.1c0-0.3,0-0.6-0.1-0.8
		c-0.2-0.6-0.6-1.1-1.2-1.5l-2.6-1.6c-0.3-0.2-0.5-0.1-0.7,0.1l-3.8,6.2C84.2,24,84.2,24.3,84.5,24.5z M89.1,19.8l1.4,0.8
		c0.4,0.2,0.3,0.6,0.1,0.9c-0.1,0.2-0.3,0.2-0.5,0.3c-0.2,0-0.4,0-0.5-0.1L88.4,21L89.1,19.8z M87.5,22.4l1.5,0.9
		c0.4,0.2,0.6,0.6,0.3,1c-0.2,0.4-0.6,0.4-1,0.2l-1.6-1L87.5,22.4z"/>
	<path d="M98.2,33.9c1,0,2-0.5,2.7-1.2l2.8-2.7c0.2-0.2,0.2-0.5,0-0.7l-0.8-0.8c-0.2-0.2-0.5-0.2-0.7,0l-2.8,2.7
		c-0.4,0.4-0.9,0.6-1.4,0.6c-0.5,0-0.9-0.1-1.3-0.4c-0.3-0.3-0.5-0.8-0.4-1.3c0-0.5,0.2-1,0.7-1.4l2.8-2.7c0.2-0.2,0.2-0.5,0-0.7
		L99,24.6c-0.2-0.2-0.5-0.2-0.7,0l-2.8,2.7C94.7,28,94.3,29,94.2,30s0.2,2,1,2.8C96.2,33.7,97.2,34,98.2,33.9z"/>
	<path d="M101,39.5l0.6,0.9c0.2,0.3,0.4,0.3,0.7,0.1l6.1-3.8c0.3-0.2,0.3-0.4,0.1-0.7l-0.6-0.9c-0.2-0.3-0.4-0.3-0.7-0.1l-6.1,3.8
		C101,39,100.9,39.2,101,39.5z"/>
	<path d="M108,48.7l-1.1-2.7l5.2-2.1c0.3-0.1,0.4-0.3,0.3-0.6l-0.4-1c-0.1-0.3-0.3-0.4-0.6-0.3l-6.8,2.6c-0.3,0.1-0.4,0.3-0.3,0.6
		l1.7,4.2c0.1,0.3,0.3,0.4,0.6,0.3l1-0.4C108,49.2,108.1,49,108,48.7z"/>
	<path d="M116.1,56l-0.3-2.6c0-0.3-0.2-0.5-0.6-0.4l-7.1,1c-0.3,0-0.5,0.2-0.4,0.6l0.3,2.6c0.1,1.1,0.7,2,1.6,2.6
		c0.8,0.6,1.9,0.9,3,0.8c1.1-0.1,2-0.7,2.7-1.5C115.9,58.1,116.2,57,116.1,56z M113.5,57.7c-0.3,0.4-0.8,0.7-1.3,0.7
		c-0.5,0-1.1,0-1.5-0.3c-0.4-0.3-0.7-0.7-0.8-1.2l-0.1-1l4-0.5l0.1,1C114,56.8,113.8,57.3,113.5,57.7z"/>
	<path d="M73.1,79.8c0.2-0.3,0.3-0.6,0.3-1v-17h0.6c0.5,0,1.1-0.3,1.4-0.9c0-0.1,1.1-2.4,4.4-2.9v2.3c0,0.8,0.7,1.6,1.6,1.6h10.8
		c0.8,0,1.6-0.7,1.6-1.6V42.1c0-0.8-0.7-1.6-1.6-1.6H81.5c-0.8,0-1.6,0.7-1.6,1.6v2.3c-3.3-0.5-4.4-2.8-4.4-2.9
		c-0.2-0.6-0.8-0.9-1.4-0.9h0l0,0l0,0c-6.8,0-16.4,0-23.2,0c-10.3,0-17.4,8.1-17.4,19.7c0,0.8,0.7,1.6,1.6,1.6
		c0.8,0,1.6-0.7,1.6-1.6c0-4,3.3-7.2,7.2-7.2s7.2,3.3,7.2,7.2c0,0.8,0.7,1.6,1.6,1.6h0.6v17c0,0.3,0.1,0.7,0.3,1l8.7,10.6
		c0.3,0.3,0.7,0.6,1.2,0.6c12.2,0,27.9,0,40,0v-3.1H66.6L73.1,79.8z M64.8,76.2V64.7c0-1.6,1.3-2.8,2.8-2.8s2.8,1.3,2.8,2.8v10.6
		C68.5,74.9,66.6,75.2,64.8,76.2z M56.2,64.7c0-1.6,1.3-2.8,2.8-2.8c1.6,0,2.8,1.3,2.8,2.8v11.5c-1.8-1-3.7-1.3-5.6-0.9L56.2,64.7
		L56.2,64.7z M60.3,78.9c0.9,0.6,1.9,0.9,3,0.9c1,0,2.1-0.3,3-0.9c1.5-0.9,2.9-0.8,3.9-0.4l-4.4,5.4h-5l-4.4-5.4
		C57.4,78.1,58.8,78,60.3,78.9z M83,43.7h7.7v15.1H83V43.7z M43.7,49.9c-2,0-3.8,0.6-5.4,1.6c2.6-5.3,7.6-7.8,12.5-7.8
		c7.3,0,14.5,0,21.7,0v4.6c0,0.8,0.7,1.6,1.6,1.6c0.8,0,1.6-0.7,1.6-1.6V46c1.1,0.7,2.5,1.3,4.3,1.5v7.3c-3.8,0.5-5.8,2.6-6.7,3.9
		H54.1V50c0-0.8-0.7-1.6-1.6-1.6c-0.8,0-1.6,0.7-1.6,1.6v2.9C49.1,51.1,46.5,49.9,43.7,49.9z"/>
	<rect x="53.9" y="34.6" width="18.7" height="3.1"/>
</g>
</svg>
